<?xml version="1.0" encoding="utf-8"?>
<!-- Generator: Adobe Illustrator 17.0.0, SVG Export Plug-In . SVG Version: 6.00 Build 0)  -->
<!DOCTYPE svg PUBLIC "-//W3C//DTD SVG 1.1//EN" "http://www.w3.org/Graphics/SVG/1.1/DTD/svg11.dtd">
<svg version="1.1" id="Layer_1" xmlns="http://www.w3.org/2000/svg" xmlns:xlink="http://www.w3.org/1999/xlink" x="0px" y="0px"
	 width="36px" height="58px" viewBox="0 0 36 58" enable-background="new 0 0 36 58" xml:space="preserve">
<path d="M34.987,18.382c0-9.381-7.602-16.986-16.987-16.986c-9.381,0-16.987,7.605-16.987,16.986
	c0,3.098,0.846,5.993,2.293,8.494H3.285L18,56.604l14.721-29.728h-0.023C34.152,24.375,34.987,21.48,34.987,18.382z M18.006,26.874
	c-4.693,0-8.494-3.803-8.494-8.493c0-4.691,3.801-8.494,8.494-8.494c4.688,0,8.494,3.803,8.494,8.494
	C26.5,23.071,22.695,26.874,18.006,26.874z"/>
</svg>
